Coordinates
version=1
nRows=14
nColumns=40
inDegrees=yes

Units are S.I. units (second, meters, Newtons, ...)
If the header above contains a line with 'inDegrees', this indicates whether rotational values are in degrees (yes) or radians (no).

endheader
time	pelvis_tilt	pelvis_list	pelvis_rotation	pelvis_tx	pelvis_ty	pelvis_tz	hip_flexion_r	hip_adduction_r	hip_rotation_r	knee_angle_r	knee_angle_r_beta	ankle_angle_r	subtalar_angle_r	mtp_angle_r	hip_flexion_l	hip_adduction_l	hip_rotation_l	knee_angle_l	knee_angle_l_beta	ankle_angle_l	subtalar_angle_l	mtp_angle_l	lumbar_extension	lumbar_bending	lumbar_rotation	arm_flex_r	arm_add_r	arm_rot_r	elbow_flex_r	pro_sup_r	wrist_flex_r	wrist_dev_r	arm_flex_l	arm_add_l	arm_rot_l	elbow_flex_l	pro_sup_l	wrist_flex_l	wrist_dev_l
     18.25000000	     -0.16477467	     42.47882501	    -94.91957323	      0.21570930	      0.54824151	      0.35943469	    116.25479841	    -20.73654332	      3.85672272	    103.42039941	      1.80502648	     16.91177103	      0.00000000	      0.00000000	    119.66001832	    -39.49453326	     11.26532598	    103.66103952	      1.80922645	     18.55800137	      0.00000000	      0.00000000	     -5.70754385	     -4.67525843	      3.91951888	     61.06155749	    -20.27093054	     51.36785306	    143.39104114	     66.29518666	      0.00000000	      0.00000000	     76.81306182	    -13.35386391	     31.98950973	    135.25094064	     57.34694033	      0.00000000	      0.00000000
     18.26666700	     -0.37657685	     43.56632410	    -95.12513820	      0.21450251	      0.55467670	      0.36122077	    115.50025497	    -20.72260226	      2.96872368	    102.69181221	      1.79231024	     17.00212133	      0.00000000	      0.00000000	    119.68461553	    -39.52804453	     11.10895620	    102.28764911	      1.78525626	     18.89347923	      0.00000000	      0.00000000	     -3.46710401	     -4.26391783	      4.22191662	     60.86432838	    -19.95189205	     51.28959270	    142.11712397	     66.36718387	      0.00000000	      0.00000000	     74.72710407	    -13.75942170	     32.29212326	    136.05397344	     57.43306579	      0.00000000	      0.00000000
     18.28333300	      2.01398842	     47.25942511	    -95.67658034	      0.21163703	      0.55821645	      0.36272224	    118.76573801	    -20.79799526	      4.43628525	    101.58784597	      1.77304239	     17.81195332	      0.00000000	      0.00000000	    119.71133107	    -38.91713443	      7.32679507	    100.04250991	      1.74607119	     20.13834779	      0.00000000	      0.00000000	      2.33029289	     -6.11852597	      3.41315614	     58.33251926	    -19.05249325	     51.36560936	    142.07262288	     67.27479913	      0.00000000	      0.00000000	     72.49928646	    -14.44774771	     32.78276876	    137.05295686	     58.60669798	      0.00000000	      0.00000000
     18.30000000	      2.02735641	     49.52458648	    -94.74062194	      0.21248141	      0.56805925	      0.36275346	    119.19405702	    -21.54903492	      4.21068970	     99.59682557	      1.73829253	     18.68936591	      0.00000000	      0.00000000	    119.72299997	    -38.15430518	      4.90412348	     97.36203564	      1.69928809	     20.56153999	      0.00000000	      0.00000000	      5.81283190	     -6.00417949	      2.19734116	     57.62203519	    -18.83962945	     51.34735497	    141.28234495	     67.07527906	      0.00000000	      0.00000000	     70.15610353	    -14.74553559	     33.04540940	    138.29598324	     59.12506999	      0.00000000	      0.00000000
     18.31666700	      2.02913855	     51.70439154	    -94.27875169	      0.21161515	      0.57701952	      0.36305297	    119.46364074	    -21.80189768	      3.64399269	     97.72015255	      1.70553841	     19.58102200	      0.00000000	      0.00000000	    119.75830825	    -37.36451157	      3.23648539	     94.52447952	      1.64976339	     21.45657535	      0.00000000	      0.00000000	      9.50538755	     -5.95064617	      2.55556689	     55.87573362	    -19.45771684	     51.88977703	    141.39666150	     67.61415606	      0.00000000	      0.00000000	     68.50899217	    -14.35694495	     33.73407995	    138.45722472	     59.80103266	      0.00000000	      0.00000000
     18.33333300	      2.17949438	     53.84562341	    -94.20422547	      0.21126497	      0.58650444	      0.36410885	    119.60765028	    -21.83487972	      2.81967928	     95.37757105	      1.66465265	     19.79802231	      0.00000000	      0.00000000	    119.77085598	    -37.13925704	      1.49794198	     92.23647188	      1.60983012	     21.87515908	      0.00000000	      0.00000000	     13.14237880	     -6.07742649	      1.37201752	     54.11948733	    -18.28926627	     49.75758437	    139.97143831	     72.94614852	      0.00000000	      0.00000000	     69.04455691	    -16.41589851	     35.73374692	    138.97167768	     61.73193670	      0.00000000	      0.00000000
     18.35000000	      2.06598113	     55.72891538	    -93.98615652	      0.21174053	      0.59609113	      0.36423998	    119.66943881	    -21.90239968	      1.89128751	     93.03967202	      1.62384861	     19.46216124	      0.00000000	      0.00000000	    119.78511169	    -36.62121869	      0.18148632	     89.85710089	      1.56830227	     21.51124716	      0.00000000	      0.00000000	     16.46689521	     -5.87210347	      1.76006978	     52.12831934	    -18.42450759	     49.32528630	    140.44141152	     73.01117704	      0.00000000	      0.00000000	     67.32351878	    -17.43647613	     36.61514261	    139.29475248	     61.88565229	      0.00000000	      0.00000000
     18.36666700	      1.86843442	     58.08011463	    -93.46384930	      0.21348843	      0.60781027	      0.36496786	    119.70295676	    -22.51023363	      0.42101906	     90.08157356	      1.57222005	     19.46871606	      0.00000000	      0.00000000	    119.79064290	    -35.50693249	     -1.39522477	     87.19154120	      1.52177947	     22.39532001	      0.00000000	      0.00000000	     20.47457701	     -5.58876310	      2.54236158	     50.02919118	    -19.28630794	     48.91605551	    139.88301594	     76.04936723	      0.00000000	      0.00000000	     64.13643035	    -17.19745714	     31.84998512	    137.46627103	     79.38616959	      0.00000000	      0.00000000
     18.38333300	      2.80947273	     60.39315009	    -94.85761743	      0.21256953	      0.61791197	      0.36588087	    119.74002756	    -21.71133740	     -0.75518115	     87.06409838	      1.51955518	     18.68609275	      0.00000000	      0.00000000	    119.79707067	    -35.83878307	     -2.94794530	     84.78258750	      1.47973530	     21.62143380	      0.00000000	      0.00000000	     24.94527315	     -5.66838389	      3.76584551	     47.09343232	    -19.43589000	     48.51768695	    139.23701282	     75.75605543	      0.00000000	      0.00000000	     59.57722488	    -16.36511466	     28.99045832	    136.07282781	     78.38378801	      0.00000000	      0.00000000
     18.40000000	      3.07263593	     62.66705775	    -95.21474415	      0.21297024	      0.62730919	      0.36722143	    119.76463144	    -21.59980600	     -2.10746812	     84.08378343	      1.46753887	     18.10461099	      0.00000000	      0.00000000	    119.79615029	    -35.54699821	     -4.22835208	     82.52567764	      1.44034479	     20.26205684	      0.00000000	      0.00000000	     29.85125918	     -5.23784573	      5.17285593	     44.16834724	    -20.74984234	     49.74852361	    139.99182395	     77.57087388	      0.00000000	      0.00000000	     55.55621799	    -15.64228500	     29.83889560	    134.74929069	     77.29756136	      0.00000000	      0.00000000
     18.41666700	      4.83695949	     65.48837270	    -97.35360824	      0.21279986	      0.63728296	      0.37104022	    119.76851950	    -20.87242926	     -3.69168857	     80.52528852	      1.40543142	     15.81278689	      0.00000000	      0.00000000	    119.79169530	    -35.98147302	     -6.23286578	     80.03892883	      1.39694284	     19.03853410	      0.00000000	      0.00000000	     35.89747296	     -5.06855221	      6.90675972	     40.18142400	    -21.39773475	     49.59844489	    139.85475166	     79.27771238	      0.00000000	      0.00000000	     52.02332861	    -13.37913036	     31.23576918	    134.88784749	     76.87260022	      0.00000000	      0.00000000
     18.43333300	      6.70784700	     68.69687153	   -100.25542279	      0.21321282	      0.64878749	      0.37587152	    119.77938341	    -19.89887060	     -5.98062584	     76.55046908	      1.33605773	     13.04004003	      0.00000000	      0.00000000	    119.79016128	    -36.91867083	     -8.32270101	     77.05103441	      1.34479424	     18.00199477	      0.00000000	      0.00000000	     42.45118881	     -3.98057714	      7.48225346	     37.06755397	    -20.60286262	     48.50761607	    139.25847564	     77.34491374	      0.00000000	      0.00000000	     52.30122324	    -16.07893815	     43.82105565	    137.34378899	     88.11497071	      0.00000000	      0.00000000
     18.45000000	      7.88333985	     71.84607476	   -101.41170672	      0.21764826	      0.65879844	      0.38363984	    119.77088169	    -20.53518867	     -7.50969524	     73.63105006	      1.28510426	     11.83200111	      0.00000000	      0.00000000	    119.79479028	    -36.23505701	    -10.31129531	     74.12336438	      1.29369676	     17.65819008	      0.00000000	      0.00000000	     48.97464516	     -2.87784201	      7.69278205	     33.31575522	    -20.11666631	     47.72369685	    137.93042496	     75.22487063	      0.00000000	      0.00000000	     48.38820297	    -16.04538642	     48.52096213	    137.99670146	     68.10405162	      0.00000000	      0.00000000
     18.46666700	      8.05413272	     75.15924417	   -100.87343949	      0.22149948	      0.67108528	      0.38997290	    119.69010007	    -21.48548476	     -9.28915038	     69.72219503	      1.21688187	     10.23383164	      0.00000000	      0.00000000	    119.78480988	    -34.46195362	    -12.27876336	     70.33904015	      1.22764784	     16.46506699	      0.00000000	      0.00000000	     55.01074414	     -2.48352548	      7.68393191	     29.00024818	    -20.30857394	     47.12952741	    138.21661378	     73.44100931	      0.00000000	      0.00000000	     42.63735306	    -14.89609671	     47.42912518	    137.12583905	     69.23155320	      0.00000000	      0.00000000
